<?xml version="1.0" encoding="UTF-8" standalone="no"?>
<svg xmlns="http://www.w3.org/2000/svg" width="128" height="128" viewBox="0 0 128 128">
  <path fill="#6DB33F" d="M116.5 6.7a59.1 59.1 0 0 1-6.8 12.1 64.3 64.3 0 0 0-79.1-3A64.2 64.2 0 0 0 10 64.2a64.2 64.2 0 0 0 114.8-24.1c.5-3.6.8-7.3.8-11 0-7.5-1.2-14.8-3.4-21.6-.2-.4-.4-.8-.7-1.2l-1.5.5a60.4 60.4 0 0 1-2.3 12.9 53 53 0 0 0-4.4-9.5c-3.7-6.2-8.7-11.7-14-16 .3.6.5 1.3.8 2 1.4 4.6.2 9.7-3.2 12.6a37.5 37.5 0 0 0-14.2 32.5c.4 12.6 6.4 24.1 16.2 31.3 5.2 3.8 11.5 5.9 17.8 6h4.8c.4-.2.8-.4 1.2-.6l1.3-1.2c.7-1 .9-2.2.2-3.2-.2-.4-.6-.8-1-1-2-1.1-4.5-1-6.5-.3a10.5 10.5 0 0 0-3 1.9l-.6.5-.1.2a28.4 28.4 0 0 1-14.5-22.8c-.2-6.4 2.1-12.6 6.4-17.3l.8-.7c2.7-2.1 6.7-1.3 8.4 1.5 1.3 2.3.9 5.3-1.1 7.2-4.3 4-4.6 10.8-.7 15.1 3 3.3 7.3 4.3 11.5 3.4 4-.9 7.4-3.8 9.1-7.6 2-4.3 1.4-9-1.4-12.9-3-4-7.6-6.5-12.5-7.7-4.7-1.1-9.8-.7-14.3 1.1-9.4 3.8-16.2 12.8-16.8 23.1-.8 11.5 5.2 21.7 14.8 27.2a16.3 16.3 0 0 1-8.2 3.7c-7.3 0-13-6.2-12.7-13.5.3-7.5 6.5-13.4 14-13.4 1.7 0 3.3.6 4.7 1.6 1.3 1 3.4.9 4.6-.1 1.2-1 2-2.6 1.2-4-.9-1.5-2.3-2.5-4-3.1a21.5 21.5 0 0 0-6.2-1.2c-6.7-.3-13.3 2.8-17.8 8.3a21.1 21.1 0 0 0-5.6 19.5c.8 7 5 13.3 10.7 16.9a28.8 28.8 0 0 0 19 2.7c6.3-1.7 12-5.4 15.8-10.5a34.9 34.9 0 0 0 5.9-24.8c-1.7-8.7-7-16.5-14.5-21a14.4 14.4 0 0 1 9.9-1.3c3.3 1 5.7 3.4 7 6.1l.7 1.5.8 1c1.1 1.3 2.7 1.8 4.3 1.3 1.6-.6 2.5-1.7 3-3.2.4-1.5.7-3.1.7-4.8.2-4.3-.4-8.7-2.3-12.7-1.5-3.1-3.7-6.2-6.7-8.4a31.1 31.1 0 0 0-23.4-2.5 33.1 33.1 0 0 0-16.2 18.3 34.6 34.6 0 0 0 2.9 24c-8.5-4.4-15.1-12.7-17.2-22.2-1.8-8.3-.5-16.7 3.8-24 2.6-4.4 6.2-8.2 10.6-11.2-3.6.9-7.1 2-10.5 3.5a58 58 0 0 0-24.7 21.3 59.4 59.4 0 0 0-6.3 8.3 59 59 0 0 0-8.8 28.6c0 1.8 0 3.5.2 5.3a59 59 0 0 0 6 25.9A58 58 0 0 0 64.2 128c35.2 0 64.2-29 64.2-64.2 0-12-3.4-23.8-9.6-33.6L115 43.3l3.4-13.3a58.8 58.8 0 0 0-1.9-23.3z"/>
</svg>
