<?xml version="1.0" encoding="UTF-8" standalone="no"?>
<svg xmlns="http://www.w3.org/2000/svg" width="128" height="128" viewBox="0 0 128 128">
  <path d="M59.448 0h20.93v96.88c-10.737 2.04-18.62 2.855-27.181 2.855-25.55 0-38.87-11.551-38.87-33.705 0-21.338 14.135-35.2 36.015-35.2 3.398 0 5.98.272 9.106 1.087V0zm0 48.765c-2.446-.815-4.485-1.086-7.067-1.086-10.6 0-16.717 6.523-16.717 17.939 0 11.143 5.845 17.26 16.582 17.26 2.309 0 4.212-.136 7.202-.542V48.765zM113.672 32.321v65.709c0 22.698-1.67 33.569-6.659 42.954-4.62 8.979-10.737 14.679-23.325 20.93l-26.406-12.497c12.587-5.845 18.698-10.873 22.576-18.699 4.078-8.163 5.437-17.668 5.437-42.67V32.32h28.377zm-20.93-32.32h20.93v21.474h-20.93V.001z" fill="#44B78B"/>
</svg>
